<?xml version="1.0" encoding="utf-8"?>
<!-- Generator: Adobe Illustrator 18.1.1, SVG Export Plug-In . SVG Version: 6.00 Build 0)  -->
<svg version="1.1" id="Layer_1" xmlns="http://www.w3.org/2000/svg" xmlns:xlink="http://www.w3.org/1999/xlink" x="0px" y="0px"
	 viewBox="0 0 69.2 48.5" enable-background="new 0 0 69.2 48.5" xml:space="preserve">
<g>
	<g>
		<path fill="#86C0DE" d="M61.3,16.1c-4.1-2.3-9-3.8-13.7-4.5c-6.9-1.1-13.9-0.9-20.6,1.4C17.6,16,12.8,24,15.5,32.1
			c1.7,5,5.6,8.1,10.7,9.9c8.3,3,17,3.2,25.7,2.1c2.5-0.3,4.5-0.2,6.6,0.9c2.4,1.3,4.9,2.4,7.4,3.5c0.2-0.2,0.4-0.3,0.5-0.5
			c-1.6-2.6-3.3-5.2-4.9-7.7C72.7,34.4,71,21.6,61.3,16.1z"/>
	</g>
	<g>
		<path fill="#0A6DB6" d="M2.4,36.4c1.7-2.5,3.4-5.1,5.1-7.6c-11.1-6.2-9.1-19,0.8-24.2c4.1-2.2,9.1-3.5,13.9-4.1
			c6.9-0.9,13.9-0.5,20.5,2C52,5.8,56.6,13.9,53.7,21.9c-1.8,5-5.8,7.9-10.9,9.6c-8.4,2.7-17.1,2.7-25.7,1.3
			c-2.5-0.4-4.5-0.3-6.6,0.8c-2.4,1.2-5,2.2-7.5,3.3C2.7,36.7,2.6,36.6,2.4,36.4z M37.4,18.3c-1.5-6.6-7.1-7.7-12.9-6.3
			c-3.4,0.8-5.6,3.3-5.6,5.7c0,2.6,2.1,5.1,5.4,5.9c5.5,1.3,11.1,1.3,16.4-0.9c3.5-1.4,5.3-4,5.3-7.3c0-3.1-2-5.3-4.5-7.1
			C34,2.8,18.8,3.2,11.5,9.2c-5.3,4.3-5.7,10.6-0.9,15.4c3.8,3.8,8.9,4.8,14.2,5.1c1.5,0.1,3,0,4.6,0c0-0.4,0-0.8,0.1-1.1
			c-1.5-0.3-3.1-0.4-4.5-0.9c-3.2-1.1-6.7-1.9-9.5-3.7c-5.2-3.3-5.1-9.9-0.2-13.5c5.1-3.7,16.3-4.3,21.8-1.1
			C40.8,11.6,41.1,15.4,37.4,18.3z"/>
	</g>
</g>
</svg>
